<?xml version="1.0" encoding="UTF-8"?>
<svg xmlns="http://www.w3.org/2000/svg" xmlns:xlink="http://www.w3.org/1999/xlink" xmlns:xodm="http://www.corel.com/coreldraw/odm/2003" xml:space="preserve" width="1000px" height="1000px" version="1.1" style="shape-rendering:geometricPrecision; text-rendering:geometricPrecision; image-rendering:optimizeQuality; fill-rule:evenodd; clip-rule:evenodd" viewBox="0 0 131.11 131.11">
 <defs>
  <style type="text/css">
   
    .fil0 {fill:black}
    .fil1 {fill:white}
   
  </style>
 </defs>
 <g id="Camada_x0020_1">
  <metadata id="CorelCorpID_0Corel-Layer"></metadata>
  <g id="_1664618716608">
   <path class="fil0" d="M0.18 36.78c-0.39,30.55 -0.03,63.52 -0.03,94.33l130.76 0 0 -7.68 -9.32 0 0.05 -12.37c1.77,-0.81 2.99,-1.75 4.8,-2.88 3.14,-1.97 4.47,-2.21 4.47,-4.74 0,-13.06 1.49,-25.94 -3.66,-36.28 -1.05,-2.11 -2.66,-4.69 -4.01,-6.24 -1.8,-2.07 -3.8,-3.03 -4.88,-5.27 -5.01,2.03 -11.08,11.48 -12.93,19.17 -1.4,5.83 -1.27,23.79 -0.82,30.41 1.68,1.19 3.11,2.13 4.94,3.25 5.61,3.43 4.4,1.57 4.4,14.84l-17.32 0.11 0 -85.57c-0.22,-1.54 -3.74,-3.8 -5.52,-5.16l-42.91 -32.62 -48.02 36.7z"></path>
   <path class="fil1" d="M7.81 41.44l0 81.99 9.87 0c0,-12.28 1.7,-22.6 12.79,-30.05 2.62,-1.76 5.28,-2.84 7.93,-4.8 -0.29,-0.41 -0.17,-0.24 -0.71,-0.78 -0.47,-0.45 -0.61,-0.52 -1.05,-0.97 -1.99,-1.96 -3.65,-5.07 -4.15,-8.08 -0.67,-4.05 -0.25,-11.34 -0.25,-15.72l-9 -0.13 -0.03 -7.58 9.01 -0.11c0.1,-5.35 -2.02,-16.02 10.33,-16.02l15.32 0c10.57,0 10.59,7.07 10.59,16.6 0.97,2.1 2.43,1.66 4.09,4.24 1.12,1.75 2.12,3.92 2.15,6.53 0.11,9.06 -6.24,8.35 -6.24,12.29 0,7.71 -1.57,4.36 10.51,11.62 3.95,2.37 7.55,4.37 9.86,7.14l0.14 -56.17c-0.3,-1.64 -37.98,-29.81 -40.24,-31.69 -2.31,0.99 -26.91,20.2 -30.89,23.31 -1.87,1.45 -9.35,6.66 -10.03,8.38z"></path>
   <path class="fil1" d="M25.34 123.26l15.68 0.17c1.63,-0.44 0.5,-1.39 1.82,-4.83 0.63,-1.64 1.54,-3.09 2.4,-4.25 6.39,-8.65 20.37,-6.07 33.41,-6.07 0.51,2.95 0.29,4.52 0.26,7.68l-9.44 0.04 -0.12 7.17c3.75,0.64 15.01,0.31 19.62,0.21 0,-12.49 -2.1,-18.71 -9.76,-23.91 -1.48,-1 -9.73,-5.69 -10.98,-5.54 -1.87,0.22 -9.28,5.89 -11.03,6.12 -1.66,0.22 -8.46,-4.96 -10.6,-5.84 -2.31,-0.96 -8.93,3.73 -11.21,5.13 -9.58,5.92 -10.05,14.81 -10.05,23.92z"></path>
   <path class="fil0" d="M109.64 0.35c-6.07,1.55 -5.51,4.13 -9.97,6.67 -7.92,4.52 -7.88,15.97 0.37,20.3 3.83,2.01 10.82,1.24 15.55,1.25 5.83,0.01 9.51,-0.55 12.42,-3.87 2.61,-2.97 3.93,-7.87 1.83,-12.39 -2.57,-5.53 -4.47,-3.82 -8.19,-8.2 -2.24,-2.64 -7.05,-5.03 -12.01,-3.76z"></path>
   <path class="fil1" d="M39.9 74.75c0,9.62 5.42,7.82 13.23,8.8 0,2.57 -0.93,7.37 3.78,7.53 1.38,0.05 3.09,-1.3 3.89,-1.91l0 -18.11c9.6,-1.25 7.25,-8.13 1.67,-8.13l-22.48 0 -0.09 11.82z"></path>
   <path class="fil1" d="M112.27 100.88c1.01,0.9 4.47,3.34 5.38,3.37 0.56,0.02 5.72,-1.78 5.72,-4.91 0,-9.95 1.57,-26.94 -5.82,-32.74 -2.67,4.07 -4.94,7.89 -5.3,14.39 -0.33,5.73 -0.31,14.16 0.02,19.89z"></path>
   <path class="fil1" d="M117.95 12.95c-1.4,-2.26 -1.54,-4.04 -3.81,-4.92 -2.56,-1 -4.81,0.1 -5.92,1.93 -0.59,0.99 -0.66,2.06 -1.39,2.66 -1.03,0.84 -2.25,0.41 -3.62,1.05 -1.96,0.94 -2.47,4.22 -0.68,6.03 2.03,2.05 12.55,1.37 16.15,1.2 5.14,-0.25 7.64,-6.68 -0.73,-7.95z"></path>
   <path class="fil1" d="M39.88 55.24l20.89 -0.01c0.05,-2.69 0.44,-5.77 -0.48,-8.01 -2.67,-0.68 -17.58,-0.71 -20.09,0.08l-0.32 7.94z"></path>
   <path class="fil1" d="M49.55 123.43l12.16 -0.06 -0.04 -7.27c-6.76,-0.92 -11.16,1.41 -12.12,7.33z"></path>
  </g>
 </g>
</svg>
