<svg xmlns="http://www.w3.org/2000/svg" xmlns:xlink="http://www.w3.org/1999/xlink" xmlns:xodm="http://www.corel.com/coreldraw/odm/2003" xml:space="preserve" width="65.3508mm" height="66.0691mm" style="shape-rendering:geometricPrecision; text-rendering:geometricPrecision; image-rendering:optimizeQuality; fill-rule:evenodd; clip-rule:evenodd" viewBox="0 0 9696.41 9802.99"> <defs>  <style type="text/css">       .fil2 {fill:#020202}    .fil0 {fill:#030303}    .fil3 {fill:#040605}    .fil1 {fill:#090A09}     </style> </defs> <g id="Camada_x0020_1">  <metadata id="CorelCorpID_0Corel-Layer"></metadata>  <g id="_2769728637440">   <path class="fil0" d="M5487.26 6824.89c79.8,25.42 154.77,80.94 335.12,128.08 304.44,79.56 733.92,65.77 1023.71,-52.81 67.21,-27.49 108.42,-51.87 163.54,-76.96 -2.66,175.76 -7.54,232 -250.37,324.63 -273.29,104.25 -741.74,105.79 -1013.85,-0.16 -67.05,-26.1 -144.24,-67.67 -184.27,-105.11 -72.01,-67.35 -82.36,-84.86 -73.89,-217.67zm-2.31 -408.36c82.47,29.35 126.95,77.67 330.06,137.16 246.96,72.33 609.55,64.04 861.88,5.8 136.43,-31.49 229.79,-86.62 334.27,-143.92 7.37,184.5 -16.38,248.69 -252.12,334.01 -341.01,123.42 -675.28,98.55 -1011,-2.55 -74.71,-22.49 -144.43,-61.01 -192.92,-105.06 -77.23,-70.17 -67.33,-91.55 -70.18,-225.43zm1.48 -406.13c246.98,143.55 457.87,194.39 765.79,194.43 275.07,0.04 459.4,-41.98 688.93,-149.74 31.77,-14.93 57.08,-37.88 75.73,-44.35 -8.07,180.44 -7.58,248.1 -255.71,334.56 -324.17,112.93 -694.62,116.44 -1017.23,-0.89 -214.73,-78.09 -261.61,-138.02 -257.52,-334.01zm-2050.36 -236.05c16.65,-26.32 73.24,-67.99 118.76,-123l244.91 -242.93c44.3,-41.06 65.86,-92.65 120.72,-121.56 44.82,30.43 77.63,76.15 116.19,117.04 49.74,52.76 343.12,326.01 366.72,373.27 -176.91,51.62 -215.46,107.13 -482.89,115.39 -133.39,4.12 -416.61,-39.2 -484.41,-118.2zm-276.14 278.87c18.52,-23.56 113.95,-125.24 136.91,-139.22 40.25,9.72 87.38,43.5 130.84,62.5 43.96,19.21 94.17,33.53 142.78,46.66 108.98,29.41 211.08,45.34 331.9,45.61 238.17,0.53 430.36,-56.84 604.32,-152.97 85.11,-47.03 46.2,61.01 177.44,-65.92 89.68,-86.74 589.8,-598.25 628.99,-618.44l0.7 1382.02c-36.53,-17.14 -119.04,-73.19 -156.51,-98.11 -54.11,-35.98 -100.51,-68.92 -152.57,-100.45 -103.17,-62.51 -121.06,5.8 -343.81,107.73 -102.59,46.95 -179.19,64.93 -283.05,96.62 -46.68,14.24 -47.72,16.9 -62.82,63.59 -43.55,134.64 -50.88,291.88 -89.4,425.35 -147.08,22.69 -345.89,26.59 -497.95,13.49 -28.74,-2.48 -50.85,-5.4 -78.92,-9.21 -126.96,-17.26 -63.67,-4.58 -132.69,-338.21 -49.56,-239.51 -24.85,-79.63 -462.53,-297.08 -205.88,-102.29 -142.11,-109.95 -250.2,-55.76l104.78 -115.23c159.62,-150.07 69.87,-146.92 236.98,-55.98 108.24,58.9 283.17,119.68 403.3,148.54 506.14,121.59 1032.45,-31.65 1423.2,-351.86 49.2,-40.31 150.64,-130.39 183.12,-183.48 -42.06,-52.64 -50.52,-44.6 -87.33,-80.39 -2.51,-2.43 -13.28,-13.71 -13.5,-13.92 -19.29,-17.7 0.28,-4.44 -21.78,-17.2 -105.03,79.34 -142.34,164.37 -354.33,290.52 -324.79,193.24 -666.26,270.72 -1050.49,194.59 -143.2,-28.38 -379.35,-104.01 -467.35,-183.81zm2325.73 -434.5c183.84,80 60.12,56.01 334.73,134.12 238.26,67.76 610.64,68.18 850.23,4.69 62.61,-16.59 120.93,-32.06 180.85,-54.07 66.28,-24.35 113.33,-59.35 162.31,-82.87 -3.83,166.03 -9.32,237.37 -251.14,328.44 -288.5,108.65 -733.71,110.72 -1019.44,-1.65 -239.71,-94.25 -254.6,-155.57 -257.55,-328.67zm2.83 -393.7c56.72,20.31 114.5,51.95 170.73,74.13 210.1,82.88 363.04,108.4 602.03,108.03 309.27,-0.49 491.98,-55.95 749.9,-191.26 2.85,33.03 2.66,107.79 -1.96,140.24 -12.3,86.56 -163.15,163.78 -241.66,191.24 -300.01,104.93 -708.07,110.76 -1008.65,4.76 -70.39,-24.84 -140.14,-57.84 -192.07,-96.87 -92.84,-69.83 -73.58,-92.24 -78.33,-230.28zm4.5 -256.35c-27.55,-110.06 185.19,-196.69 279.89,-235.57 222.37,-91.31 674.02,-81.37 916.13,-11.5 102.08,29.45 304.69,122.22 316.63,211.54 14.5,108.49 -185.13,195.1 -289.38,228.81 -261.39,84.54 -637.73,93.02 -901.84,9.91 -91.03,-28.65 -297.28,-106.71 -321.44,-203.18zm-2648.62 132.94c-57.38,-57.72 -65.77,-367.72 -55.27,-467.4 22.06,-209.49 102.22,-382.45 212.04,-539.64 369.45,-528.78 1231.44,-640.82 1728.33,-88.71 45.18,50.2 205.93,246.15 204.67,348.22 -121.89,97.1 -293.41,295.07 -335.85,328.12 -29.08,-17.33 -73.12,-70.24 -107.5,-102.94l-321.65 -320.22c-34.69,-35.6 -178.69,-190.1 -223.85,-202.78 -66.64,-18.71 -108.79,48.28 -137.05,77.24 -37.88,38.86 -67.35,66.77 -108.51,108.34 -39.53,39.93 -66.35,67.75 -102.75,105.17 -35.88,36.87 -74.35,69.29 -110.87,105.97l-429.44 429.14c-42.48,41.13 -70.67,68.3 -108.88,107.97 -34.93,36.26 -69.54,80.48 -103.43,111.52zm-288.65 284.51c-83.54,-93.55 -146.85,-467.71 -145.7,-625.33 2.48,-340.83 114.22,-611.91 285.13,-872.77 47.67,-72.75 121.31,-139.99 178.18,-201.45 113.7,-122.88 281.88,-228.75 457.99,-301.3 466.02,-192.01 804.52,-150.26 1249.15,46.78 211.06,93.54 295.31,202.92 433.03,334.93 62.47,59.87 105.29,135.51 162.62,217.13 48.95,69.66 54.87,62.63 0.62,116.87 -23.21,23.21 -77.87,76.92 -99.44,92.2l-34.48 -48.8c-9.44,-18 -18.83,-34.88 -29.23,-51.93 -57.08,-93.54 -165.27,-238.91 -254.11,-306.28 -18.53,-14.05 -26.38,-22.23 -44.28,-36.96 -369.62,-304.05 -894.34,-368.4 -1335.28,-179.36 -73.74,31.62 -143.97,78.13 -206.24,118.86 -165.41,108.18 -358.41,322.8 -441.79,506.88 -74.74,165.04 -113.48,305.49 -122.71,510.82 -15.25,338.71 83.82,475.54 91.67,545.29l-145.14 134.4zm4402.07 -1460.47c-31.71,-1.47 -118.85,-106.47 -145.44,-131.77 -165.23,-157.19 -123.66,-176.77 -316.01,8.99 -43.9,42.42 -107.65,98.16 -149.67,148.52l-510.16 511.17c-22.58,23.06 -46.16,56.34 -74.17,79.41 -31.65,26.05 -152.99,61.03 -200.62,88.77 -166.71,97.07 -213.69,136.45 -251.93,326.14 -11.97,59.39 -99.16,131.88 -134.37,164.12 -103.42,94.72 -189.96,200.78 -293.75,293.72 -103.27,92.45 -190.22,192.46 -292.43,292.42l-134.71 -124.83c-75.39,-69.97 -86.7,-96.31 -131.83,-139.21 -25.51,-24.24 -46.59,-39.36 -70.55,-65.05l-200.02 -206.66c-39.05,-32.24 -100.21,-120.41 -168.64,-87.2 -44.04,21.37 -361.53,359.07 -407.39,407.13l-1083.06 1088.92c-61.06,-38.9 -55.55,-50.06 -98.21,-94.47 -29.59,-30.82 -57.47,-53 -97.24,-92.39 -33.73,-33.4 -160.48,-176.22 -178.14,-213.64 20.05,-34.76 432.72,-440.29 471.74,-480.24 42.67,-43.71 76.52,-73.77 119.56,-115.49l360.14 -362.9c82.62,-78.39 155.78,-153.24 233.5,-236.44l716.07 -718.48c20.79,8.46 66.15,51.06 82.53,68.45 17.05,18.07 20.3,26.07 37.64,43.9 15.28,15.71 25.27,23.87 40.94,40.36 53.92,56.74 101.24,114.28 159.1,166.14 317.24,284.33 304.32,428.85 515.5,179.74 25.09,-29.59 56.22,-50.77 82.78,-79.74 93.55,-102.08 148.23,-147.62 244.21,-243.79l482.5 -484.56c55.45,-46.06 103.94,-107.62 156.97,-159.31 68.65,-66.92 454.29,-444.17 482.49,-484.55 70.7,-101.22 -34.96,-158.81 -79.75,-205.57 -28.89,-30.16 -49.38,-53.53 -79.07,-83.71l-56.69 -61.43c-12.12,-16.54 -12.55,-6.29 -6.04,-17.12 27.98,-12.12 1096.74,-171.36 1140.63,-167.99l-166.39 1148.64zm-647.49 -3360.39c35.05,83.22 58.59,144.7 142.37,181.14 13.67,5.95 25.42,9.51 40.57,13.38l28.55 7.06c2.03,0.68 4.76,1.81 6.54,2.48l12.32 5.77c-46.74,47.35 -106.95,49.29 -136.33,124.78 -38.47,98.85 9.14,147.91 18.4,227.68 -89.93,80.86 -204.59,131.64 -135.07,315.68 -294.79,30.57 -264.51,309.82 -322.28,391.5 -55.91,79.01 -287.67,90.45 -387.3,145.72 -47.57,26.38 -57.14,57.87 -90.95,90.15 -61.26,58.5 -133.27,87.63 -134.22,222.52 -3.83,543.39 -183.05,438.54 -409.4,658.89l-224.16 -110.64c-287.45,-114.83 -246.04,-8.53 -298.28,-316.01 -43.67,-257.03 -2.42,-258.78 -263.39,-282.77 -135.96,-12.49 -671.8,-41.01 -727.26,57.93 -38.96,69.47 -59.53,359.69 -94.07,457.17 -108.73,31.28 -202.65,65.82 -299.61,106.95 -154.74,65.64 -117.85,117.57 -270.1,13.29 -83.74,-57.36 -167.74,-109.53 -252.1,-163.7 -93.88,-60.3 -165.3,32.49 -256.88,112.82 -156.7,137.45 -269.42,264.88 -406.78,424.26 -87.91,102.02 -3.34,174.8 58.73,266.59 44.17,65.31 137.37,185.05 166.58,248.72 -32.61,68.4 -67.05,133.66 -100.51,206.21 -130.42,282.76 31.46,212.55 -302.57,275.15 -81.37,15.25 -149.04,23.92 -223.27,48.37 -73.59,24.26 -65.77,99.68 -77.2,194.16 -21.17,174.96 -17.98,357.94 -0.61,532.37 25.19,252.76 20.34,209.25 400.4,276.94 21.59,3.86 43.1,7.2 62.41,10.52l43.59 10.58c35.97,13.03 49.84,112.97 64.41,152.25 20.34,54.84 37.12,95.36 63.19,144.75 75.23,142.6 102.79,131.99 -9.96,264.14l-167.04 240.01c-41.81,75.8 -22.83,86.68 20.94,139.71 142.86,173.08 235.5,269.83 398.99,423.77 179.3,168.81 172.26,186.66 307.61,100.33l193.61 -122.51c174.38,-131.52 110.52,-74.71 344.53,25.59 75.09,32.18 174.03,54.88 239.85,85.2 32.55,69.16 53.62,322 82.73,423.88 23.28,81.49 78.07,79.99 166.67,88.71 76.32,7.51 154.43,10.68 231.87,18.87 18.47,115.14 -139.58,283.44 -39.76,428.33 76.18,110.58 45.94,48.77 34.7,207.84 -8.16,115.49 18.28,166.64 20.46,262.65l-839.45 -1.02 -1.59 144.89 852.38 0.19c42.17,260.56 54.45,117.87 -21.77,370.85 -20.15,66.86 -24.96,133.29 10.15,188.91l144.83 198.78c21.23,29.65 31.38,38.44 73.18,43.01 82.07,8.96 109.4,-34.1 139.15,-90.76 50.28,-95.79 110.05,-240.06 174.84,-294.06 -14.21,57.61 -62.69,210.62 -65.52,261.73 -9.41,169.46 270.61,181.71 410.72,251.08 163.27,80.83 275.98,155.42 424.74,235.1 217.22,116.33 255.22,74.34 281.33,-85.92 21.26,-130.39 137.1,-203.01 176.58,-328.86 22.02,15.51 11.74,8.75 33.03,32.72 59.5,66.93 143.61,88.15 223.99,33.38l79.08 -58.3c35.21,34.62 79.6,95.49 110.17,135.73 37.94,49.96 92.27,70.85 107.25,146.02 14.47,72.73 -12.11,169.76 38.68,214.36 71.07,62.42 128.94,-14.93 159.64,-53.09 92.02,34.7 161.97,2.67 209.19,-49.94 61.15,69.87 7.55,50.86 132.34,89.77 51.62,16.1 123.31,49.29 178.87,21.44 86.61,-43.41 98.76,-156.73 -146,-199.3 -16.51,-78.37 -28.06,-138.69 -129.96,-123.63 -69.68,10.28 -91.87,80.57 -172.13,88.15 -42.63,-49.78 -19.13,-67.88 -110.63,-65.48 -15.62,-74.54 -71.04,-105.73 -106.27,-147.8 -56.89,-67.91 -168.41,-253.28 -280.29,-249.14 -61.29,2.26 -96.7,75.57 -160.5,100.02 -40.98,-31.66 -79.84,-105.49 -156.06,-115.81 -123.85,-16.75 -204.16,203.29 -260.62,284.11 -44.71,63.99 -74.78,103.34 -90.85,190.48 -64.36,-19.47 -395.17,-231.87 -560.46,-291.72 -40.89,-14.81 -190.62,-51.93 -214.06,-71.75l84.08 -292.02c48.31,-153.79 -12.29,-240.63 -112.91,-195.13 -245.47,110.98 -266.01,169.98 -378.19,396.74 -23.71,-12.54 -25.45,-18.81 -46.66,-46.89 -56.84,-75.21 -24.85,-130.01 6.14,-207.56 60.85,-152.25 13.59,-175.72 -4.76,-314.48 149.49,-16.31 822.25,23.13 895.83,-5.34 66.59,-25.77 40.14,-186.51 40.15,-266.23 0.09,-395.67 16.47,-827.15 -1.85,-1218.41l-141.58 -1.9 -1.91 1345.15 -807.69 0.33c-14.69,-98.4 -32.46,-220.53 -11.51,-313.06 12.67,-55.94 20.77,-101.13 -1.93,-155.21 -74.48,-177.46 -99.44,-18.16 -29.65,-265.21 15.53,-55 19.84,-109.16 31.19,-166.37 81.29,-2.94 156.25,-8.71 237.34,-17.58 95.46,-10.43 137.41,-5.07 159.03,-93.57 33.4,-136.71 45.42,-286.13 85.75,-420.23 76.04,-21.45 158.57,-49.39 227.53,-79.74 43.21,-19.01 190.77,-99.62 214.16,-104.04 47.33,-8.93 337.06,200.57 393.79,233.57 6.2,157.25 2.05,219.3 88.61,318.74 44.45,51.07 167.95,122.29 251.51,155.42 382.51,151.68 991.23,157.31 1346.15,-72.07 243.96,-157.68 185.69,-290.8 186.18,-628.04 0.8,-541.78 5.62,-1085.38 1.59,-1626.93 -2.88,-385.52 -642.6,-481.28 -942.34,-478.33 -53.58,0.53 -153.27,13.75 -195.62,7.75 38.79,-57.2 175.29,-173.29 228.68,-228.38 28.58,-29.5 47.05,-51.95 74.4,-79.19 53.1,-52.87 102.44,-100 154.31,-153.08 27.15,-27.78 47.66,-51.9 75.86,-77.7 21.87,-20 65.51,-63.47 79.41,-71.64 38.06,22.69 245.35,245.49 297.58,293.71 34.79,32.14 57.58,66.06 125.91,72.79 24.51,-43.25 157.71,-1055.91 183.79,-1243.74 74.14,-533.67 106.06,-446.77 -364.82,-382.82l-831.45 126.21c-73.4,12.23 -367.63,34.07 -399.57,82.02 -27.72,52.47 98.57,146.99 159.84,212.35 57.55,61.4 145.16,129.68 187.12,202.95 -42.85,78.77 -259.46,260.56 -334.2,335.99 -108.15,109.19 -216.81,236.36 -335.99,334.6 -35.45,-22.75 -61.07,-82.08 -83.94,-116.74 -55.7,-84.5 -111.43,-154.07 -182.99,-223.75 -16.47,-16.04 -31.49,-35.45 -48.74,-50.4l-114.41 -93.71c-527.47,-403.45 -1324.16,-464.77 -1872.15,-102.23 -243.1,160.82 -408.43,301.11 -563.36,557.3 -263.6,435.87 -324.33,1001.28 -127.01,1483.85 21.11,51.65 52.82,96.84 67.51,143.61 -26.16,36.65 -55.25,59.35 -83.7,91.12 -28.83,32.2 -51.75,75.17 -93.61,89.99 -87.97,-206.55 -113.25,-198.05 -191.95,-465.78 -26.14,-88.92 -91.3,-74.6 -232.13,-101.58 -61.56,-11.78 -194.16,-30.08 -251.2,-56.74 -15.19,-7.11 -8.84,-3.15 -18.32,-11.45 -34.7,-83.06 -24.42,-531.95 5.79,-615.41 82.72,-35.55 318.49,-52.72 430.75,-84.66 44.87,-12.76 52.54,-19.23 64.68,-61.19 47.27,-163.54 91.78,-317.17 181.58,-460.38 54.02,-86.16 33.28,-105.87 -15.37,-184.31 -35.65,-57.52 -71.52,-109.59 -105.98,-156.18 -34.13,-46.16 -85.17,-109.28 -100.23,-161.57 51.71,-92.23 137.83,-159.71 208.11,-234.51 70.79,-75.36 145.51,-151.19 234.57,-213.27 110.39,55.31 214.06,138.91 313.34,206.66 136.89,93.4 178.76,-9.48 355.43,-84.41 63.1,-26.77 120.01,-47.91 191.09,-71.07 242.18,-78.92 165.27,-18.47 221.73,-301.63 9.27,-46.53 32.88,-187.49 48.41,-214.12 84.04,-48.13 520.02,-20.34 638.38,-7.33 13.78,96.56 50.79,332.95 81.18,425.58 18.37,56.04 45.28,53.39 101.95,70.15 205.62,60.83 298.95,110.78 481.55,205.87 83.98,43.73 156.33,-34.54 222.37,-81.75 38.07,-27.23 65.69,-41.14 103.64,-68.18 34.41,-24.51 63.85,-45.61 102.23,-69.54 134.83,-84.1 203.1,-307.45 211.78,-474.92 10.85,-209.02 -21.45,-126.37 95.84,-247.87 123.05,-127.45 334.11,-86.7 464.03,-222.62 57.23,-59.87 66.04,-157.35 97.59,-246.08 50.61,-142.35 141.34,-65.98 237.19,-70.36 121.43,-5.53 87.04,-144.47 42.88,-223.6 -63.82,-114.32 48.18,-116.4 106.68,-186.94 83.03,-100.08 9.87,-166.86 -5.52,-261.5 63.12,-42 130.9,-75.89 156.57,-165.71 30.16,-105.57 -39.17,-174.4 -115.09,-196.89 -179.07,-53.03 -76.86,-50.36 -171.08,-154.32 -66.83,-73.76 -131.5,-60.64 -254.45,-70.58 39.71,-36.95 75.12,-70.23 110.73,-107.53 21.22,-22.23 98.8,-78.99 129.19,-99.59 86.06,15.33 149.07,65.63 238.25,90.11 125.05,34.33 178.14,20.82 302.22,32.88 77.01,163.72 87.93,145.41 263.35,205.93 67.32,23.22 274.75,120.79 294.14,175.28 13.69,38.41 8.13,145.93 24.85,210.23 15.59,59.99 40.7,118.17 45.97,186.51 5.71,74.02 7.26,145.82 19.6,218.33 12.91,75.85 50.11,119.92 52.02,184.52 4.54,152.97 -89.41,422.59 -106.9,601.41 -17.89,182.68 12.11,214.06 -129.71,339.76 -117.99,104.6 -99.75,193.85 21.07,285 69.56,52.45 84.35,37.72 165.93,67.45 -34.7,152.56 -156.94,88.59 87.9,365.68 15.61,17.67 23.75,23.49 38.76,42.33l216.36 271.87c47.54,57.17 167.03,229.49 246.12,229.58 49.9,0.04 77.84,-32.84 106.8,-53.86 32.81,-23.81 66.96,-40.55 110.08,-52.08 103.39,-27.66 189.34,-59.23 255.9,16.22 47.14,53.43 4.39,96.28 -27.02,247.8 -27.42,132.26 -45.42,104.01 -180.04,136.64 -96.76,23.44 -128.85,114.53 -162.44,163.21 -74.74,108.28 -84.05,44.62 -96,228.94 -10.49,161.91 -25.65,136.59 -95.58,230.19 -38.28,51.2 -106.49,143.6 -69.99,229.14 24.48,57.39 136.52,100.88 186.42,139.29 77.44,59.62 32.27,128.33 113.27,212.19 72.01,74.56 158.73,73.34 205.94,119.16 16.91,129.52 -160.05,203.47 -6.45,314.2 25.51,18.4 33.35,31.43 60.67,47.49 41.71,24.54 44.76,12.32 58.77,58.42 19.08,62.82 15.51,118.57 41.17,185.08 90.46,234.43 349.62,132.69 456.92,221.18 65.66,54.14 88.1,42.81 182.78,43.21 -49.57,94.84 -216.75,216.64 -325.43,274.58 -87.48,46.63 -166.64,67.78 -182.37,188.3 -9.75,74.78 -59.84,90.03 -91.86,143.08 -27.81,46.09 -38.93,134.23 -84.47,159.24 -39.69,21.8 -43.68,14.04 -68.15,49.5 -76.01,110.17 -32.32,205.51 110.55,190.11 36.95,-53.12 32.97,-66.58 88.77,-117.08 41.92,-37.94 65.66,-59.71 82.13,-134.04 26.75,-120.76 127.07,-81.89 142.57,-283.32 111.67,-39.19 307.77,-191.34 390.14,-269.43 44.69,-42.38 115.03,-118.76 146.16,-179.36 48.93,-95.26 15.37,-183.08 -80.98,-202.61 -61.04,-12.36 -85.21,6.28 -134.71,14.2 -52.26,8.37 -68.74,-26.16 -98.82,-52.18 -63.53,-54.96 -349.19,-11.71 -376.19,-122.04 -11.77,-48.07 -12.92,-90.58 -27.81,-143.11 -38.35,-135.32 -54.77,-115.45 -149.55,-182.46 3.03,-48.21 31.74,-55.31 38.73,-110.02 20.56,-160.84 -22.08,-247.82 -182.37,-300.01 -134.92,-43.95 -46.68,-46.63 -132.29,-192.84 -32.05,-54.72 -123.85,-115.78 -180.82,-144.21 10.79,-40.63 53.3,-66.65 78.02,-100.42 58.42,-79.78 74.78,-161.27 81.55,-260.55 6.25,-91.47 6.83,-81.38 51.65,-130.47 24.56,-26.89 44.65,-93.57 64.66,-107.07 16.43,-11.1 111.31,-27.67 142.8,-38.07 81.95,-27.03 149.07,-90.55 168.6,-183.82 10.68,-51.04 11.45,-94.77 26.01,-145.51 45.95,-160.1 76.35,-230.07 -84.6,-367.66 -132.94,-113.63 -439.49,-8.86 -550.28,60.21 -11.54,-12.26 -16.65,-20.03 -27.15,-33.7 -97.02,-126.27 -204.89,-275.55 -308.5,-387.58 -22.02,-23.8 -35.52,-50.37 -54.75,-72.04 -30.61,-34.5 -43.01,-37.79 -65.4,-71.64 11.84,-66.55 99.11,-147.05 18.75,-243.02 -72.82,-86.96 -125.39,-59.93 -216.81,-107.32 5.59,-30.06 107.57,-128.72 145.48,-209.94 33.44,-71.68 33.34,-220.71 48.16,-313.2 29.62,-184.82 113.55,-442.82 98.82,-618.23 -4.54,-54.11 -27.39,-84.2 -44.74,-129.01 -18.47,-47.67 -21.17,-101.87 -24.48,-157.4 -13.89,-232.61 -21.57,-138.61 -57.78,-302.88 -28.56,-129.66 10.09,-187.98 -73.48,-287.61 -61.09,-72.85 -113.08,-97.63 -212.89,-148.57 -74.8,-38.19 -173.82,-66.61 -250.29,-102.48 -68.67,-32.21 -27.67,-143.06 -189.77,-171.54 -117.08,-20.55 -203.96,10.65 -317.76,-43.76 -222.99,-106.61 -306.07,-131.06 -486.21,59.28l-93.79 86.8c-28.87,25.94 -68.99,54.74 -99.1,82.01 -68.37,61.96 -126.58,168 -8.59,215.4 109.74,44.08 203.24,34.07 323.86,39.68z"></path>   <path class="fil0" d="M7755.48 8806.94l2.61 863.59 -506.06 2.8c-19.91,-73.24 -4.96,-576.42 -5.1,-691.83 -0.25,-208.04 -37.54,-175.39 162.14,-175.88 99.04,-0.24 254.06,-8.47 346.41,1.32zm-509.06 -370.74c132.41,-29.35 114.74,-53.37 189.77,-108.52 74.48,46.04 60.64,100.11 216.83,106.19 103.17,4.02 173.75,-55.28 216.98,-101.06 46.93,30.94 75.69,98.89 216.83,102.16 132.39,3.06 163.26,-67.05 226.02,-108.08l10.4 9.87c1.07,1.08 3.65,3.61 4.94,4.94 1.25,1.31 3.29,3.53 4.66,4.96 53.82,56.5 112.56,86.43 197.49,89.81 113.45,4.53 158.63,-57.81 216.33,-104.22 21,11.93 199.83,205.1 401.96,38.89 22.58,-18.56 22.91,-26.75 51.58,-41.23 48.44,82.36 127.17,87.79 170.26,109.32l3.32 1233.6 -1493.96 -0.49c-4.61,-268.99 -1.04,-540.84 0.01,-808.33 0.88,-221.84 -10.13,-183.58 -226.76,-182.81 -100.61,0.36 -316.17,12.97 -402.96,-1.35l-3.72 -243.65zm994.5 -338.19c32.18,199.02 -162.1,288.56 -269.92,149.8 -37.95,-48.84 -33.16,-85.64 -29.35,-152.86l299.27 3.06zm880.6 3.15c62.53,238.11 -319.44,332.12 -305.89,-5.76l305.89 5.76zm-1316.1 -2.31c27.03,124.12 -43.73,215.2 -161.05,212.77 -97.62,-2.02 -168.08,-103.19 -135.88,-215.71l296.93 2.94zm572.64 -2.85c73.92,-2.92 195.6,-2.4 270.41,0.76 94.9,4.02 18.07,149.96 -1.68,170.27 -59.38,61.07 -280.92,109.43 -268.74,-171.03zm1187.27 3.06c6.77,115.6 -44.69,214.82 -158.91,214.52 -119.86,-0.3 -156.28,-94.57 -151.97,-215.43l310.87 0.91zm-2227.09 151.8c-69.59,96.41 -287.65,112.02 -278.66,-154.83l303.9 7.64c19.7,39.63 2.98,108.06 -25.24,147.19zm1038.68 -609.73l217.73 0.53c14.32,103.42 75.32,252.33 78.43,336.01l-296.78 -3.34 0.62 -333.21zm-353.96 1.57l222.41 5.21 -0.62 327.6 -289.72 -2.85 67.93 -329.96zm-487.29 332.82c2.24,-24.04 143.86,-306.74 162.62,-333.21l198.73 2.97 -80.51 324.96c-54.29,19.23 -209.33,5.09 -280.84,5.28zm1401.15 -333.07c30.98,98.05 138.42,283.29 147.26,335.1 -208.79,-5.21 -273.08,30.76 -292.22,-53.53 -19.78,-87.07 -54.69,-198.81 -65.79,-281.5l210.75 -0.07zm-1383.73 -5.48c-4.1,37.26 -137.34,285.3 -166.14,337.89l-257.99 1.74c7.43,-34.93 201.77,-286.93 231.3,-334.3l192.83 -5.33zm1684.17 337.43c-18.68,-21.54 -145.3,-290.3 -161.46,-331.32l186.05 0.25 238.23 334.14 -262.82 -3.07zm-1836.03 -563.63c130.93,-11.69 735.91,-2.27 920.68,-2.79 185.47,-0.52 678.53,-9.24 859.11,-1.13l51.77 8.29 3.22 102.96 -1837.03 -3.22 2.26 -104.11zm-282.88 1018.49l2 1243.96c-146.99,-3.19 -151.51,-18.25 -193.9,58.43 28.74,95.85 101.07,67.2 301.87,67.78 321.07,0.92 2347.41,10.09 2440.2,-6.04 13.52,-20.52 36.4,-38.61 24.63,-75.78 -18.67,-58.9 -113.14,-43.55 -190.96,-43.86l-2.31 -1244.2c142.26,-62.47 224.94,-198.9 184.34,-413.83 -7.58,-40.12 -221.92,-309.44 -251.52,-352.92 -76.32,-112.08 -74.65,-57.21 -73.73,-226.81 0.76,-139.77 -6.37,-162.46 -151.34,-158.45 -451.07,12.46 -1038.48,1.39 -1500.31,0.98 -87.36,-0.07 -174.71,0.28 -262.09,0.01 -161.68,-0.5 -186.25,-38.4 -177.31,211.82 2.46,69.13 6.26,64.91 -29.45,109.5l-224.14 300c-41.19,56.23 -77.56,94.95 -77.35,186.71 0.47,216.21 30.12,239.06 181.36,342.69z"></path>   <path class="fil0" d="M361.16 7485.97l281.56 -1.13 71.16 2187.53 -418.16 -0.91 65.45 -2185.5zm443.54 915.64l537.81 -340.71c12.55,444.93 -66.9,470.62 448.77,138.03 42.85,-27.64 187.04,-123 223.48,-133.48 -1.77,92.39 -5.27,262.91 13.65,340.22 81.89,30.34 113.4,-13.31 173.73,-48.74 107.65,-63.22 415.46,-263.14 480.32,-290.53l0.91 1603.4 -1835.66 0.73 -43.01 -1268.92zm-439.1 -1221.3l270.21 6.38c-0.59,55.52 16.51,152.11 -18.47,161.79l-247.86 3.66 -3.87 -171.83zm-200.53 2491.38c-53.77,-0.8 -114.62,-10.7 -144.4,19.45 -34.45,34.88 -23.58,87.04 15.99,102.38 40.49,15.7 2520.52,4.85 2609.44,5.33 51.49,0.19 261.02,8.9 293.08,-8.34 39.14,-21.04 53.55,-115.27 -48.71,-117.63 -96.07,-2.23 -77.51,40.24 -77.32,-275.62l0.15 -1174.94c0.5,-90.4 15.13,-273.83 -18.86,-336.71 -75.67,-21.9 -123.92,27.73 -179.5,61.35 -51.9,31.41 -104.81,65.24 -155.9,97.24 -50.77,31.8 -282.11,185.75 -314.17,191.57 -5.85,-66.78 13.34,-288.72 -12.52,-331.11 -44.94,-73.7 -179.13,37.12 -224.92,66.92 -73.39,47.76 -140.07,83.33 -213.5,130.32 -48.39,30.98 -170.88,117.94 -217.22,133.46 0.52,-169.96 36.84,-425.35 -103.67,-346.56 -62.75,35.19 -537.77,348.99 -574.67,347.69 -13.69,-362.29 -17.7,-720.95 -31.04,-1081.09 -4.56,-123.3 -51.17,-108.18 -163.81,-108.08 -443,0.4 -357.98,-81.19 -374.77,461.22 -22.33,721.22 -45.91,1441.91 -63.7,2163.14z"></path>   <path class="fil1" d="M8901.39 9075.87l-545.28 18.74c-12.66,-106.34 -57.58,-203.57 -72.81,-300.87l710.09 -3.92 -92.01 286.05zm-359.51 295.5l181.09 1.97c-18.07,113.88 14.94,205.91 141.3,198.93 48.4,-2.69 89.56,-31.41 112.53,-62.53 32.29,-43.73 17.83,-86.92 6.08,-139.62 21.97,-7.72 47.06,-8.75 53.56,-37.6 19.5,-86.56 -129.49,-62.09 -208.42,-61.66l-415.73 1.74 -21.84 -75.17c95.76,-9.6 536.73,2.92 583.84,-24.07 19.13,-10.95 145.96,-387.99 127.39,-467.28 -72.53,-41.62 -652.86,-20.55 -843.07,-22.05 -28.1,-50.82 5.22,-193.3 -272.27,-153.79 -56.4,81.98 -2.09,100.64 92.13,103.08 64.69,1.66 52.58,5.34 89.96,149.74 33.07,127.72 88.76,369.36 128.39,486 19.6,57.72 21.77,37.43 -8.95,84.9 -137.72,212.75 313.61,348.73 254,17.4z"></path>   <path class="fil2" d="M432.79 6854.22l142.13 1.59 3.66 -2002.27 588.71 -3.29c0.98,-6.54 1.88,-12.72 2.15,-11.54l5.88 -78.61c1.28,-39.19 11.47,-54.75 -20.98,-62.15l-577.95 1.05c-191.37,-2.92 -144.55,53.21 -144.68,233.53 -0.13,199.82 -11.6,1840.69 1.08,1921.71z"></path>   <path class="fil3" d="M6786.28 8350.46l-2.52 -143.88 -1253.16 -3.35 -1.57 -781.73 -141.45 -2.27 -2.23 577.13c0.34,73.3 -8.32,225.13 0.73,288.71 12.72,89.2 144.72,64.41 233.48,64.35 386.12,-0.27 781.68,-8.46 1166.72,1.04z"></path>   <path class="fil0" d="M1078.51 8749.62l188.96 2.69 -1.45 197.61 -190.38 -0.39 2.88 -199.91zm-117.26 307.76c56.6,16.94 376.29,35.15 415.84,-7.69 32.38,-35.09 18.07,-147.74 17.75,-203.76 -0.31,-54.11 17.06,-174.74 -18.35,-203.29 -36.89,-29.73 -374.53,-29.69 -409.14,-2.57 -38.12,29.87 -20.56,148.58 -20.18,205.86 0.46,69.17 -5.73,155.59 14.1,211.45z"></path>   <path class="fil3" d="M1653.89 8750.12l193.02 -2.77 1.28 202.1 -190.69 0.39 -3.61 -199.71zm316.26 -105.81c-53.77,-24.5 -345.88,-41.54 -412.54,-10.49 -48.1,22.42 -29.35,93.36 -29.99,194.03 -1.77,280.09 -25.34,243.81 205.65,243.39 259.27,-0.47 243.48,31.5 241.95,-207.25 -0.4,-63.12 5.59,-167.23 -5.07,-219.68z"></path>   <path class="fil0" d="M2232.34 8750.23l194.18 -1.85 0.92 200.85 -190.87 0.58 -4.23 -199.58zm-77.14 -119.63c-66.06,22.48 -46.53,32.45 -47.21,179.18 -1.37,292.03 -22.4,260.61 185.63,260.5 47.24,-0.01 184.22,8.07 219.08,-5.93 58.93,-23.68 43.04,-117.74 42.48,-182.26 -0.37,-41.84 5.03,-192.4 -6.1,-220.04 -26.07,-64.75 -369.6,-39.71 -393.88,-31.44z"></path>  </g> </g></svg>