<?xml version="1.0" encoding="UTF-8"?>
<svg xmlns="http://www.w3.org/2000/svg" xmlns:xlink="http://www.w3.org/1999/xlink" xmlns:xodm="http://www.corel.com/coreldraw/odm/2003" xml:space="preserve" width="135.485mm" height="135.485mm" version="1.1" style="shape-rendering:geometricPrecision; text-rendering:geometricPrecision; image-rendering:optimizeQuality; fill-rule:evenodd; clip-rule:evenodd" viewBox="0 0 18870.63 18870.63">
 <defs>
  <style type="text/css">
   
    .fil0 {fill:black}
   
  </style>
 </defs>
 <g id="Camada_x0020_1">
  <metadata id="CorelCorpID_0Corel-Layer"></metadata>
  <g id="_1664815817168">
   <path class="fil0" d="M9988.17 12899.85c0,-447.58 356.48,-700.28 847.71,-700.28l4422.79 0c958.2,0 1627.44,296.03 2079.45,942.81 290.18,415.23 426.81,853.11 426.81,1416.02l0 3206.53 -4054.24 0 0 -4201.67 -3132.82 0c-135.91,0 -343.26,-137.55 -412.37,-214.19 -67.47,-74.82 -177.33,-327.37 -177.33,-449.23zm8882.47 1422.14l0 102.44c-7.23,1457.92 -0.24,2917.81 0,4375.97l0 70.24 -6302.5 0 0 -4164.81c-602.27,0 -1204.59,-1.75 -1806.85,0.86 -638.29,2.79 -895.47,-191.71 -1325.98,-479.99 -205.71,137.75 -315.04,239.47 -578.13,343.29 -559.65,220.85 -1828.81,135.84 -2554.69,135.84l0 4164.81 -6302.5 0 0 -70.81c0.25,-1458.22 7.86,-2918.54 0,-4376.52l0 -156.37c12.84,-672.03 265.61,-1219.34 527.04,-1650.89 201,-331.8 824.12,-999.68 1168.36,-1079.89 -48.89,-183.07 -929.96,-1009.21 -395.64,-2349.05 130.42,-327.06 248.56,-471.8 473.07,-706.34 5.24,-5.47 12.8,-13.34 18.15,-18.71l57.3 -53.28c37.23,-34.19 57.08,-53.82 96.27,-88.01 234.26,-204.45 662.1,-425.97 1043.08,-468.04 877.04,-96.87 1610.72,207.72 2098.9,882.02 469.09,647.91 564.88,1569.59 147.11,2359.14 786.29,0 1572.56,0 2358.83,0 633.48,0 1015.18,-48.69 1523.52,245.6 121.9,70.57 211.97,161.66 319.32,233.55 266.39,-178.39 341.44,-304.39 760.32,-419.1 410.31,-112.37 2902.71,-60.04 3441.34,-60.04 -411.65,-777.94 -322.17,-1743 162.32,-2380.8 958.22,-1261.43 2732.27,-1090.3 3524.34,20.96 100.67,141.25 188.46,303.51 257.88,479.27 242.66,614.43 204.56,1254.27 -123.4,1868.6 -104.27,195.33 -252.06,338.73 -282.89,454.24 163.64,43.71 548.53,349.57 673.41,469.16 575.53,551.14 1010.34,1415.21 1021.99,2316.69zm-10651.59 -758.72l-3059.1 0 0 4201.67 -4054.24 0 0 -3206.53c0,-1421.08 968.11,-2358.83 2506.26,-2358.83l4422.79 0c332.51,0 604.05,85.77 751.19,354.53 259.04,473.17 -80.89,1009.17 -566.9,1009.17zm7371.34 -2469.39c-445.85,0 -818.11,-243.63 -984.07,-600.76 -203.23,-437.34 -139.16,-867.25 163.11,-1178.46 468.81,-482.68 1089.63,-483.14 1550.11,-18.76 664.89,670.5 107.92,1797.99 -729.15,1797.99zm-13342.12 -1068.85c0,-818.53 1054.01,-1518.64 1834.48,-728.76 969.04,980.74 -565.02,2466.87 -1513.42,1476.57 -86.28,-90.09 -159.44,-193.49 -211.43,-304.57 -36.03,-76.98 -109.63,-334.5 -109.63,-443.24z"></path>
   <path class="fil0" d="M9988.17 1179.41c389.91,0 956.15,258.34 1214.72,406.98 1084.17,623.27 1807.53,1808.95 1807.53,3094.41 0,920.42 -447.62,1907.23 -911.65,2368.58 -528.1,525.05 -752.52,709.14 -1446.44,986.11 -106.52,42.52 -174.03,62.22 -309.83,95.59 -115.72,28.41 -274.41,49.63 -354.32,87.96l0 -847.7c733.42,-388.08 1105.7,-748.82 1105.7,-1695.41 0,-588.92 -474.5,-1208.71 -1009.92,-1422.62 -294.26,-117.57 -328.98,-91.79 -681.7,-129.16 -448.89,-47.55 -693.23,-583.59 -347.34,-929.47 235.27,-235.29 772.02,-311.63 933.26,380.41l1105.7 0c0,-395.36 -133.15,-775.9 -341.96,-1021.73 -155.22,-182.77 -479.44,-502.58 -763.74,-526.25l0 -847.71zm-2211.4 2285.12c0,886.3 454.17,1498.99 1193.45,1718.23 210.59,62.44 408.08,33.62 586.42,76.99 892.43,217.08 173.13,1578.06 -501.66,907.09 -132.15,-131.4 -127.01,-185.11 -172.5,-380.35l-1105.7 0c0,508.48 177.31,883.51 482.71,1175.84 278.16,266.26 289.44,232.5 622.99,409l0 847.7c-388.46,-186.39 -937.83,-3.68 -2110.59,-1169.66 -1170.98,-1164.21 -1219.76,-3421.89 -18.34,-4718.65 485.55,-524.09 1388.76,-1151.32 2128.93,-1151.32l0 847.71c-448.79,37.34 -1105.7,765.52 -1105.7,1437.41zm-3022.24 921.42c0,1215.89 88.44,1660.01 639.07,2678.02l765.21 967.06c5.47,5.24 13.66,12.47 19.23,17.62 365.2,337.77 770.05,667.15 1230.37,870.47 1524.16,673.18 2959.55,587.98 4410.09,-196.6 409.85,-221.68 893.53,-664.55 1200.93,-1010.46 192.28,-216.37 539.02,-743.54 654.21,-1004.35 390.69,-884.54 442.48,-1273.73 442.48,-2248.06 0,-709.97 -231.19,-1281.46 -436.43,-1774.98 -80.7,-194.06 -285.5,-538.87 -405.39,-700.31 -285.76,-384.78 -194.16,-274.52 -531.09,-611.46l-590.54 -515.16c-625.82,-471.01 -1683.97,-857.75 -2496.21,-857.75 -940.37,0 -1393.72,57.62 -2216.24,437.46 -215,99.28 -519.63,269.44 -701.32,404.36 -506.12,375.88 -1023.62,873.99 -1332.61,1431.66 -73.35,132.4 -137.05,220.15 -194.41,358.43 -224.4,540.93 -457.36,1128.45 -457.36,1754.04z"></path>
  </g>
 </g>
</svg>
