<svg xmlns="http://www.w3.org/2000/svg" xmlns:xlink="http://www.w3.org/1999/xlink" fill="#000000" width="800px" height="800px" viewBox="0 0 512 512" id="Gardening" xml:space="preserve"><g><rect height="9.107" width="9.107" x="88.678" y="416.052"></rect><rect height="9.106" width="9.107" x="196.518" y="411.498"></rect><rect height="9.106" width="9.106" x="316.103" y="411.498"></rect><rect height="9.107" width="9.106" x="436.148" y="416.052"></rect><rect height="9.107" width="9.107" x="239.837" y="443.367"></rect><path d="M149.213,432.105c1.644,0,2.981,1.337,2.981,2.981h10c0-7.158-5.823-12.981-12.981-12.981s-12.981,5.823-12.981,12.981   s5.823,12.981,12.981,12.981v-10c-1.644,0-2.981-1.337-2.981-2.981S147.569,432.105,149.213,432.105z"></path><path d="M372.074,437.105l-3.13-9.497c-3.294,1.086-5.967,3.389-7.528,6.484c-1.561,3.096-1.822,6.615-0.737,9.908   s3.388,5.967,6.484,7.527c1.841,0.928,3.829,1.396,5.832,1.396c1.366,0,2.74-0.219,4.076-0.658   c3.294-1.086,5.967-3.389,7.528-6.484c1.561-3.097,1.822-6.615,0.736-9.908l-9.496,3.131c0.248,0.756,0.188,1.563-0.17,2.275   c-0.358,0.711-0.973,1.239-1.729,1.488c-0.757,0.25-1.565,0.189-2.275-0.169c-0.712-0.358-1.24-0.973-1.49-1.729   c-0.249-0.756-0.189-1.564,0.17-2.275C370.704,437.884,371.318,437.354,372.074,437.105z"></path><path d="M436.422,382.336c-6.793,4-13.288,7.804-24.346,8.95v-5.811c21.479-2.6,38.179-20.929,38.179-43.097v-5h-5   c-13.295,0-25.207,6.012-33.179,15.452v-11.406c21.479-2.6,38.179-20.928,38.179-43.096v-5h-5   c-13.295,0-25.207,6.012-33.179,15.453v-11.408c21.479-2.599,38.179-20.928,38.179-43.095v-5h-5   c-9.106,0-17.563,2.823-24.552,7.632v-22.992h-10v32.521c-5.561,7.299-8.872,16.399-8.872,26.262v1.131   c-7.972-9.606-19.995-15.736-33.425-15.736l-5,0.001v5c0,22.337,16.955,40.782,38.67,43.158v5.903   c-0.16,1.51-0.245,3.042-0.245,4.594v1.131c-7.972-9.607-19.995-15.736-33.425-15.736h-5v5c0,22.337,16.955,40.782,38.67,43.158   v5.902c-0.16,1.512-0.245,3.043-0.245,4.596v5h0.245v5.784c-13.688-0.528-20.902-4.773-28.507-9.252   c-8.926-5.257-18.155-10.691-36.5-10.691c-18.344,0-27.573,5.435-36.499,10.691c-7.207,4.244-14.071,8.272-26.416,9.134v-5.061   v-0.334c18.99-2.461,33.711-18.727,33.711-38.377v-5h-5c-11.377,0-21.622,4.936-28.711,12.775v-3.506   c6.381-7.108,9.874-16.195,9.874-25.821c0-10.34-4.026-20.062-11.339-27.372l-3.535-3.535l-3.535,3.535   c-7.313,7.311-11.339,17.032-11.339,27.372c0,9.626,3.493,18.713,9.874,25.821v3.506c-7.089-7.84-17.334-12.775-28.711-12.775h-5v5   c0,19.65,14.721,35.916,33.711,38.377v0.334v5.061c-12.354-0.858-19.222-4.888-26.432-9.134   c-8.925-5.257-18.154-10.691-36.498-10.691c-18.342,0-27.571,5.436-36.497,10.692c-7.557,4.449-14.732,8.665-28.251,9.236v-6.066   c21.596-2.489,38.424-20.875,38.424-43.128v-5h-5c-13.429,0-25.452,6.13-33.424,15.735v-11.658   c21.596-2.488,38.424-20.875,38.424-43.127v-5h-5c-14.209,0-26.846,6.86-34.772,17.442c-4.796-18.762-21.841-32.675-42.075-32.675   l-5,0.001v5c0,22.252,16.828,40.638,38.424,43.127v10.528v1.131c-7.972-9.607-19.995-15.736-33.424-15.736h-5v5   c0,22.252,16.828,40.639,38.424,43.127v10.529v5v5.507c-11.208-1.114-17.751-4.944-24.593-8.974   c-8.925-5.257-18.154-10.692-36.498-10.692v10c15.617,0,23.295,4.521,31.423,9.309c8.925,5.257,18.154,10.691,36.497,10.691   c18.342,0,27.571-5.436,36.497-10.692c8.128-4.786,15.805-9.308,31.421-9.308c15.617,0,23.295,4.521,31.423,9.308   c8.925,5.257,18.155,10.692,36.498,10.692c18.344,0,27.573-5.435,36.498-10.691c8.129-4.787,15.807-9.309,31.425-9.309   s23.297,4.521,31.426,9.309c8.926,5.257,18.155,10.691,36.501,10.691c18.344,0,27.574-5.435,36.5-10.691   c8.129-4.787,15.807-9.309,31.426-9.309v-10C454.577,371.645,445.348,377.079,436.422,382.336z M439.813,347.821   c-2.316,14.08-13.459,25.224-27.539,27.539C414.59,361.28,425.732,350.138,439.813,347.821z M439.813,303.772   c-2.316,14.079-13.459,25.223-27.539,27.537C414.59,317.23,425.732,306.087,439.813,303.772z M439.813,259.722   c-2.316,14.08-13.459,25.223-27.539,27.538C414.59,273.181,425.732,262.037,439.813,259.722z M373.85,288.54   c14.08,2.315,25.223,13.459,27.539,27.539C387.309,313.763,376.165,302.62,373.85,288.54z M373.85,332.591   c14.08,2.314,25.223,13.459,27.539,27.538C387.309,357.813,376.165,346.67,373.85,332.591z M297.33,353.234   c-2.236,11.4-11.24,20.404-22.641,22.64C276.926,364.474,285.93,355.47,297.33,353.234z M240.979,353.234   c11.4,2.235,20.404,11.239,22.64,22.64C252.218,373.639,243.214,364.635,240.979,353.234z M164.458,347.821   c-2.315,14.08-13.458,25.224-27.538,27.539C139.236,361.28,150.379,350.138,164.458,347.821z M164.458,303.772   c-2.315,14.079-13.458,25.223-27.538,27.537C139.236,317.23,150.379,306.087,164.458,303.772z M98.497,288.54   c14.08,2.315,25.223,13.459,27.538,27.539C111.955,313.763,100.812,302.62,98.497,288.54z M98.497,332.591   c14.08,2.314,25.223,13.459,27.538,27.538C111.955,357.813,100.812,346.67,98.497,332.591z M269.154,342.165   c-3.17-4.695-4.874-10.227-4.874-16.019s1.704-11.322,4.874-16.019c3.17,4.696,4.874,10.227,4.874,16.019   S272.324,337.47,269.154,342.165z"></path><rect height="10" width="36.775" x="436.146" y="464.048"></rect><rect height="10" width="140.008" x="275.695" y="464.048"></rect><rect height="10" width="140.639" x="112.265" y="464.048"></rect><rect height="10" width="27.845" x="65.387" y="464.048"></rect><rect height="10" width="407.535" x="65.387" y="480.62"></rect><path d="M75.827,105.713c2.636,5.554,6.909,10.008,12.357,12.879l35.205,18.553l4.662-8.847l-35.205-18.553   c-3.522-1.855-6.283-4.732-7.984-8.317c-3.734-7.877-9.597-14.091-16.956-17.968L43.74,70.725l-4.662,8.847l24.167,12.735   C68.675,95.168,73.025,99.804,75.827,105.713z"></path><path d="M120.71,39.664c10.073-3.497,20.812-2.688,30.239,2.28l22.619,11.92c2.322,1.224,4.029,3.278,4.806,5.786   c0.777,2.507,0.53,5.166-0.693,7.488l-14.025,26.613c-1.994-1.115-3.458-2.924-4.137-5.114c-0.701-2.264-0.479-4.665,0.626-6.762   L170.65,61.94l-8.188-4.314c0.033-0.061,0.068-0.119,0.101-0.18l-8.847-4.662c-4.596,8.722-12.313,15.131-21.731,18.049   c-9.417,2.917-19.407,1.992-28.128-2.604l-4.662,8.847c6.841,3.605,14.294,5.433,21.813,5.433c4.665,0,9.354-0.703,13.937-2.123   c9.264-2.869,17.224-8.407,23.061-15.899l-6.708,12.729c-1.972,3.74-2.603,7.935-1.881,12.032   c-2.675,1.448-4.918,3.666-6.405,6.488c-1.876,3.56-2.301,7.613-1.244,11.475c-3.782,1.311-6.885,3.951-8.761,7.511   c-1.959,3.717-2.354,7.974-1.113,11.986c1.242,4.015,3.973,7.305,7.691,9.265l4.203,2.215   c-3.065,21.862,6.988,43.754,25.487,55.712l-22.431,42.565l110.623,58.296l9.217-17.488l135.533-70.138l-13.636-26.362   l-94.864,45.201l40.098-76.089l-6.514-3.432l7.189-13.641l-55.693-29.35c5.54-16.349-1.602-34.989-17.361-43.295l-31.03-16.35   c-15.24-8.032-33.684-3.992-44.337,8.702c-1.847-3.155-4.523-5.754-7.838-7.501l-22.619-11.92   c-11.732-6.183-25.648-7.232-38.182-2.88c-11.842,4.112-24.751,3.249-35.415-2.371L69.744,21.38l-4.662,8.847l12.271,6.467   C90.458,43.599,106.261,44.682,120.71,39.664z M153.323,143.21l3.529,1.86c-0.373,14.736,6.692,28.484,18.791,36.742l-1.682,3.192   C160.194,175.729,152.325,159.693,153.323,143.21z M167.115,150.413c1.964,0.841,4.048,1.272,6.148,1.272   c1.563,0,3.135-0.235,4.669-0.711c4.016-1.236,7.309-3.969,9.272-7.693c1.108-2.102,1.672-4.343,1.776-6.573   c0.729,0.104,1.463,0.163,2.2,0.163c1.566,0,3.14-0.237,4.676-0.715c1.995-0.618,3.81-1.605,5.373-2.896l-20.883,39.629   C173,167.49,168.262,159.377,167.115,150.413z M260.896,266.8l-61.262-32.284l-4.662,8.847l61.262,32.285l-2.952,5.603   l-92.93-48.972l2.953-5.604l22.14,11.667l4.662-8.847l-22.14-11.667l28.558-54.191l92.93,48.973L260.896,266.8z M384.146,193.961   l4.597,8.886l-113.9,58.942l11.08-21.025L384.146,193.961z M316.115,162.019l-14.254-7.512l-4.662,8.847l14.254,7.512   l-17.336,32.897l-92.93-48.973l17.336-32.896l68.522,36.109l4.662-8.847l-68.522-36.109l4.19-7.951l1.667,0.878l91.263,48.095   L316.115,162.019z M216.231,97.495c-0.699-2.259-1.885-4.276-3.437-5.968c1.813-1.372,3.329-3.123,4.422-5.196   c4.044-7.675,1.091-17.209-6.584-21.254l-1.695-0.894c3.289-1.351,7.112-1.254,10.467,0.509l31.026,16.349   c3.063,1.617,5.265,4.342,6.202,7.675c0.312,1.104,0.465,2.213,0.467,3.311l-20.207-10.648l-7.188,13.641l-6.513-3.432   l-6.311,11.976C217.061,101.544,216.849,99.489,216.231,97.495z M211.233,114.276l-4.37,8.292c0.17-1.889-0.017-3.774-0.51-5.577   C208.153,116.369,209.803,115.458,211.233,114.276z M320.98,136.995l-2.525,4.794L238.55,99.681l2.526-4.794L320.98,136.995z    M225.744,52.663l31.03,16.35c10.896,5.742,16.104,18.31,13.027,29.708l-3.299-1.738c0.833-3.587,0.776-7.356-0.244-10.977   c-1.686-5.995-5.648-10.898-11.163-13.81l-31.034-16.353c-8.383-4.406-18.377-3.044-25.218,3.021l-3.385-1.784   C203.311,49.409,215.523,47.277,225.744,52.663z M187.109,88.242l4.662-8.847l-7.236-3.813l1.992-3.781   c0.438-0.83,0.79-1.687,1.103-2.554l2.058-3.904l16.282,8.581c1.354,0.714,2.35,1.912,2.803,3.376   c0.453,1.463,0.31,3.015-0.404,4.368c-0.715,1.356-1.911,2.351-3.376,2.802c-1.458,0.452-3.008,0.307-4.364-0.406l-0.002-0.001l0,0   h0l-2.331,4.423l-2.331,4.424l7.911,4.169c2.797,1.474,3.873,4.948,2.399,7.745c-0.711,1.349-1.909,2.342-3.373,2.795   c-1.464,0.454-3.015,0.311-4.368-0.401c0,0,0,0-0.001,0l-5.722-3.016l-4.662,8.847l5.722,3.016   c2.797,1.474,3.875,4.945,2.402,7.738c-0.713,1.354-1.912,2.349-3.384,2.805c-1.458,0.453-3.006,0.31-4.361-0.404l-7.911-4.169   l-4.662,8.847c1.355,0.714,2.352,1.913,2.805,3.375c0.454,1.461,0.311,3.011-0.403,4.363c-0.715,1.356-1.911,2.351-3.376,2.802   c-1.465,0.453-3.017,0.311-4.369-0.401l-26.366-13.895c-1.353-0.714-2.348-1.911-2.8-3.373s-0.308-3.014,0.406-4.369   c0.714-1.354,1.911-2.35,3.372-2.802c1.46-0.451,3.01-0.308,4.365,0.405l17.464,9.203l4.662-8.847l-17.464-9.203   c-1.353-0.714-2.348-1.911-2.8-3.373s-0.308-3.014,0.406-4.369c0.448-0.851,1.09-1.544,1.847-2.062   c1.522,1.765,3.367,3.254,5.49,4.373c1.425,0.751,2.977,1.132,4.543,1.132c0.972,0,1.949-0.146,2.903-0.442   c0.623-0.192,1.217-0.443,1.778-0.747l13.536,7.134l4.662-8.847l-12.088-6.37l5.343-10.139L187.109,88.242z"></path><rect height="33.281" width="10" x="329.654" y="265.048"></rect><rect height="17.874" width="10" x="410.703" y="202.048"></rect><rect height="14.434" width="10" x="329.654" y="312.714"></rect><rect height="15.462" width="10" x="375.991" y="233.919"></rect><rect height="31.025" width="10" x="462.32" y="281.688"></rect><rect height="15.231" width="10" x="462.32" y="327.147"></rect><rect height="19.018" width="10" x="462.32" y="219.922"></rect></g></svg>